<?xml version="1.0" encoding="utf-8"?>
<!-- Generator: Adobe Illustrator 19.2.0, SVG Export Plug-In . SVG Version: 6.00 Build 0)  -->
<svg version="1.1" id="Layer_1" xmlns="http://www.w3.org/2000/svg" xmlns:xlink="http://www.w3.org/1999/xlink" x="0px" y="0px"
	 width="70px" height="70px" viewBox="0 0 70 70" style="enable-background:new 0 0 70 70;" xml:space="preserve">
<style type="text/css">
	.st0{fill:#31D5DB;}
</style>
<g>
	<path class="st0" d="M56.3,29.5l-18.6-28c-0.1-0.1-0.2-0.2-0.3-0.3c-0.5-0.3-1.2-0.2-1.5,0.3l-18.6,28c-0.1,0.2-0.2,0.4-0.2,0.6
		c0,0.6,0.5,1.1,1.1,1.1h10.2v5.6c0,0.6,0.5,1.1,1.1,1.1c0.6,0,1.1-0.5,1.1-1.1v-6.7c0-0.6-0.5-1.1-1.1-1.1c0,0-0.1,0-0.1,0h-9.1
		L36.8,4.1L53.3,29h-9.2c-0.6,0-1.1,0.5-1.1,1.1v37.8c0,0.6,0.5,1.1,1.1,1.1c0.6,0,1.1-0.5,1.1-1.1V31.2h10.2h0
		c0.2,0,0.4-0.1,0.6-0.2C56.5,30.7,56.7,30,56.3,29.5z"/>
	<path class="st0" d="M34.6,42.2c-0.5-0.4-1.2-0.3-1.6,0.2L14,66.5c-0.2,0.2-0.2,0.4-0.2,0.7c0,0.6,0.5,1.1,1.1,1.1
		c0.3,0,0.7-0.2,0.9-0.4l19-24.2C35.2,43.3,35.1,42.6,34.6,42.2z"/>
	<path class="st0" d="M29.5,57.1c-3.1,0-5.7,2.5-5.7,5.7c0,3.1,2.5,5.7,5.7,5.7c3.1,0,5.7-2.5,5.7-5.7
		C35.2,59.7,32.7,57.1,29.5,57.1z M29.5,66.3c-1.9,0-3.5-1.5-3.5-3.5c0-1.9,1.5-3.5,3.5-3.5v0c1.9,0,3.5,1.5,3.5,3.5
		C33,64.7,31.4,66.3,29.5,66.3z"/>
	<path class="st0" d="M19.2,53.1c3.1,0,5.7-2.5,5.7-5.7c0-3.1-2.5-5.7-5.7-5.7c-3.1,0-5.7,2.5-5.7,5.7C13.5,50.5,16,53.1,19.2,53.1z
		 M19.2,43.9L19.2,43.9c1.9,0,3.5,1.5,3.5,3.5c0,1.9-1.5,3.5-3.5,3.5c-1.9,0-3.5-1.5-3.5-3.5C15.7,45.5,17.3,43.9,19.2,43.9z"/>
</g>
</svg>
