<?xml version="1.0" encoding="utf-8"?>
<!-- Generator: Adobe Illustrator 19.2.0, SVG Export Plug-In . SVG Version: 6.00 Build 0)  -->
<svg version="1.1" id="Layer_1" xmlns="http://www.w3.org/2000/svg" xmlns:xlink="http://www.w3.org/1999/xlink" x="0px" y="0px"
	 width="70px" height="70px" viewBox="0 0 70 70" style="enable-background:new 0 0 70 70;" xml:space="preserve">
<style type="text/css">
	.st0{fill:#31D5DB;}
</style>
<g>
	<path class="st0" d="M27.9,39.7c1.7,0,2.6-1.4,2.6-3V9.1c0-1.7-0.9-3-2.6-3c-1.7,0-2.6,1.4-2.6,3v27.5
		C25.3,38.3,26.2,39.7,27.9,39.7z"/>
	<path class="st0" d="M35.2,39.7c1.7,0,2.6-1.4,2.6-3V4c0-1.7-0.9-3-2.6-3c-1.7,0-2.6,1.4-2.6,3v32.6C32.7,38.3,33.6,39.7,35.2,39.7
		z"/>
	<path class="st0" d="M42.6,39.7c1.7,0,2.6-1.4,2.6-3V7.3c0-1.7-0.9-3-2.6-3c-1.7,0-2.6,1.4-2.6,3v29.3C40,38.3,40.9,39.7,42.6,39.7
		z"/>
	<path class="st0" d="M49.9,14.9c-1.7,0-2.6,1.4-2.6,3v18.7c0,1.7,0.9,3,2.6,3c1.7,0,2.6-1.4,2.6-3V17.9
		C52.5,16.3,51.6,14.9,49.9,14.9z"/>
	<path class="st0" d="M50.1,40.9c-1.7,0-2.6,1.4-2.6,3l-0.2,8.9c0,6.3-5.4,11.5-11.7,11.5s-12.4-5.1-12.4-11.5
		c0-1.7-0.3-4.4-2.3-4.5c-1.7-0.1-2.8,1.4-2.8,3C18.1,61.1,26,69,35.7,69c9.7,0,16.8-7.9,16.8-17.6V44
		C52.5,42.3,51.8,40.9,50.1,40.9z"/>
	<path class="st0" d="M27.4,48.7c1.3,1.8,2.4,3.9,2.4,6.9c0,1.7,0.2,3,1.9,3c1.7,0,2.4-1.4,2.4-3.1c0-4.8-1.5-8.1-4.3-10.8
		c-2.5-2.4-5.6-3.1-7.9-3.5V26.7c0-1.7-0.7-3-2.4-3c-1.7,0-1.9,1.4-1.9,3v16.2C17.5,46.1,24.5,44.6,27.4,48.7z"/>
</g>
</svg>
